<svg xmlns="http://www.w3.org/2000/svg" viewBox="0 0 176 176" width="176" height="176" role="img" aria-label="M&C"><title>M&C</title><rect width="176" height="176" rx="22" fill="#0b2545"/><path d="M33.80543011500088,44 H154 L142.1945698849991,128 H22 Z" fill="#ffc400" rx="4"/><path d="M57.38 60.94Q57.65 60.40 58.40 60.40L67.85 60.40Q68.19 60.40 68.43 60.64Q68.67 60.88 68.67 61.22L68.67 107.18Q68.67 107.52 68.43 107.76Q68.19 108 67.85 108L58.20 108Q57.86 108 57.62 107.76Q57.38 107.52 57.38 107.18L57.38 78.01Q57.38 77.74 57.24 77.71Q57.11 77.67 56.97 77.88L52.21 86.17Q51.94 86.72 51.80 86.72Q51.67 86.72 51.33 86.17L46.57 77.88Q46.43 77.67 46.30 77.67Q46.16 77.67 46.16 77.94L46.16 107.18Q46.16 107.52 45.92 107.76Q45.68 108 45.34 108L35.69 108Q35.35 108 35.11 107.76Q34.87 107.52 34.87 107.18L34.87 61.22Q34.87 60.88 35.11 60.64Q35.35 60.40 35.69 60.40L45.21 60.40Q45.89 60.40 46.23 60.94L51.67 70.80Q51.87 71.08 52.08 70.80M111.10 106.98Q111.37 107.39 111.37 107.52Q111.37 108 110.62 108L100.15 108Q99.54 108 99.13 107.52L97.84 105.96Q97.70 105.69 97.36 105.82Q92.26 108.68 86.21 108.68Q79.75 108.68 76.01 105.52Q72.27 102.36 72.27 96.30Q72.27 91.95 74.11 88.96Q75.94 85.97 79.14 83.59Q79.41 83.38 79.21 83.11Q76.28 79.24 75.40 77.23Q74.52 75.22 74.52 72.71Q74.52 66.93 78.22 63.39Q81.93 59.86 87.98 59.86Q92.06 59.86 95.29 61.52Q98.52 63.19 100.36 66.18Q102.19 69.17 102.19 73.05Q102.19 77.33 100.12 80.29Q98.04 83.25 94.51 85.70Q94.24 85.90 94.44 86.17Q94.71 86.58 95.39 87.40L98.25 91Q98.52 91.27 98.72 90.93Q100.70 88.48 101.85 85.90Q102.19 85.15 102.94 85.56L110.08 89.64Q110.76 90.12 110.42 90.73Q107.84 95.83 105.18 99.02Q104.98 99.30 105.12 99.50Q107.29 102.02 111.10 106.98M88.32 70.06Q87.16 70.06 86.48 70.91Q85.80 71.76 85.80 73.12Q85.80 74.14 86.11 74.95Q86.42 75.77 87.71 77.60Q87.91 77.81 88.18 77.67Q90.90 75.50 90.90 73.12Q90.90 71.76 90.16 70.91Q89.41 70.06 88.32 70.06M87.98 99.02Q89.27 98.82 90.90 98.07Q91.31 97.80 90.97 97.60L89.75 96.10L86.08 91.68Q85.87 91.48 85.60 91.61Q83.63 93.38 83.63 95.28Q83.63 96.85 84.72 98.04Q85.80 99.23 87.98 99.02M129.26 108.54Q122.80 108.54 118.92 104.74Q115.04 100.93 115.04 94.60L115.04 73.73Q115.04 67.34 118.92 63.60Q122.80 59.86 129.26 59.86Q135.72 59.86 139.63 63.60Q143.54 67.34 143.54 73.73L143.54 74.34Q143.54 74.68 143.30 74.92Q143.06 75.16 142.72 75.16L133.06 75.56Q132.25 75.56 132.25 74.75L132.25 72.91Q132.25 71.35 131.43 70.43Q130.62 69.51 129.26 69.51Q127.96 69.51 127.15 70.43Q126.33 71.35 126.33 72.91L126.33 95.56Q126.33 97.05 127.15 97.97Q127.96 98.89 129.26 98.89Q130.62 98.89 131.43 97.97Q132.25 97.05 132.25 95.56L132.25 93.58Q132.25 93.24 132.49 93.01Q132.72 92.77 133.06 92.77L142.72 93.18Q143.06 93.18 143.30 93.41Q143.54 93.65 143.54 93.99L143.54 94.60Q143.54 100.93 139.63 104.74Q135.72 108.54 129.26 108.54" fill="#0d1b2a" transform="skewX(-8) translate(15.178410147858276 0)"/><path d="M160,22 c0,0 -9,11 -9,17 a9,9 0 0 0 18,0 c0,-6 -9,-17 -9,-17z" fill="#3b8cff"/></svg>
